<svg width="60" height="60" viewBox="0 0 60 60" fill="none" xmlns="http://www.w3.org/2000/svg">
<rect y="60" width="60" height="60" rx="30" transform="rotate(-90 0 60)" fill="url(#paint0_linear_344_136)"/>
<path d="M34.7156 26.7108L41.5513 29.1965C41.7153 29.2574 41.8568 29.367 41.9567 29.5107C42.0566 29.6543 42.1102 29.8251 42.1102 30.0001C42.1102 30.1751 42.0566 30.3458 41.9567 30.4895C41.8568 30.6331 41.7153 30.7428 41.5513 30.8037L34.7156 33.2894C34.5978 33.3328 34.4908 33.4013 34.402 33.49C34.3132 33.5788 34.2447 33.6858 34.2013 33.8037L31.7156 40.6394C31.6547 40.8034 31.5451 40.9449 31.4014 41.0448C31.2578 41.1447 31.087 41.1982 30.912 41.1982C30.737 41.1982 30.5663 41.1447 30.4226 41.0448C30.279 40.9449 30.1693 40.8034 30.1085 40.6394L27.6227 33.8037C27.5793 33.6858 27.5109 33.5788 27.4221 33.49C27.3333 33.4013 27.2263 33.3328 27.1085 33.2894L20.2727 30.8037C20.1087 30.7428 19.9672 30.6331 19.8673 30.4895C19.7674 30.3458 19.7139 30.1751 19.7139 30.0001C19.7139 29.8251 19.7674 29.6543 19.8673 29.5107C19.9672 29.367 20.1087 29.2574 20.2727 29.1965L27.1085 26.7108C27.2263 26.6674 27.3333 26.5989 27.4221 26.5101C27.5109 26.4213 27.5793 26.3143 27.6227 26.1965L30.1085 19.3608C30.1693 19.1968 30.279 19.0553 30.4226 18.9554C30.5663 18.8555 30.737 18.8019 30.912 18.8019C31.087 18.8019 31.2578 18.8555 31.4014 18.9554C31.5451 19.0553 31.6547 19.1968 31.7156 19.3608L34.2013 26.1965C34.2447 26.3143 34.3132 26.4213 34.402 26.5101C34.4908 26.5989 34.5978 26.6674 34.7156 26.7108Z" fill="white"/>
<defs>
<linearGradient id="paint0_linear_344_136" x1="30" y1="60" x2="30" y2="120" gradientUnits="userSpaceOnUse">
<stop stop-color="#144FE6"/>
<stop offset="0.479167" stop-color="#33FFF3" stop-opacity="0.4"/>
<stop offset="0.9999" stop-color="#33FFF3"/>
<stop offset="1" stop-color="#33FFF3"/>
</linearGradient>
</defs>
</svg>
