<svg width="100" height="100" viewBox="0 0 100 100" fill="none" xmlns="http://www.w3.org/2000/svg">
<rect width="100" height="100" rx="30" fill="white"/>
<path fill-rule="evenodd" clip-rule="evenodd" d="M33.5001 42.3985L33.5001 48.9373C33.7494 49.5788 34.5192 50.4038 36.2188 51.1753C38.246 52.0956 41.1451 52.7014 44.4224 52.7014C44.581 52.7014 44.7388 52.7 44.8956 52.6972C44.9149 52.6956 44.9344 52.6948 44.954 52.6948C45.3428 52.6948 45.658 53.01 45.658 53.3987C45.658 53.7875 45.3428 54.1027 44.954 54.1027C44.9373 54.1027 44.9207 54.1021 44.9043 54.1009C44.7444 54.1037 44.5837 54.1051 44.4224 54.1051C39.7061 54.1051 35.6038 52.912 33.5001 51.1544L33.5 58.2558C33.5002 58.8621 34.1107 59.9024 36.2586 60.8775C38.1915 61.7549 40.9299 62.347 44.0385 62.3922C44.4492 62.3964 44.7807 62.731 44.7807 63.1426C44.7807 63.5484 44.4584 63.8789 44.0559 63.8922C44.052 63.8921 44.0482 63.8925 44.0444 63.8925C44.0398 63.8925 44.0353 63.8926 44.0307 63.8926C44.0188 63.8926 44.0069 63.8923 43.9951 63.8917C37.3325 63.7896 32.0004 61.3053 32 58.256L32.0002 39.6231C32.019 36.5161 37.5733 34 44.4222 34C51.2828 34 56.8444 36.5247 56.8444 39.639L56.8442 39.6646V41.2151C56.845 41.2292 56.8454 41.2435 56.8454 41.2578V45.0271C56.8454 45.4413 56.5096 45.7771 56.0954 45.7771C55.6812 45.7771 55.3454 45.4413 55.3454 45.0271V45.012L55.3442 45.0122V42.3988C53.2404 44.1562 49.1383 45.3491 44.4224 45.3491C39.7062 45.3491 35.6039 44.156 33.5001 42.3985ZM55.3443 39.6498L55.3442 39.6572V40.1823C55.0945 40.8237 54.3246 41.6482 52.6259 42.4193C50.5987 43.3396 47.6997 43.9454 44.4224 43.9454C41.1451 43.9454 38.246 43.3396 36.2188 42.4193C34.5193 41.6479 33.7495 40.823 33.5001 40.1815L33.5001 39.6322L33.5002 39.6288C33.5062 39.0208 34.1255 37.9833 36.2686 37.0129C38.2803 36.102 41.1611 35.5 44.4222 35.5C47.689 35.5 50.574 36.1041 52.586 37.0175C54.7341 37.9926 55.3444 39.0328 55.3444 39.639L55.3443 39.6498Z" fill="black"/>
<path d="M36.3322 47.1135C36.3322 47.5011 36.018 47.8153 35.6304 47.8153C35.2428 47.8153 34.9286 47.5011 34.9286 47.1135C34.9286 46.7259 35.2428 46.4117 35.6304 46.4117C36.018 46.4117 36.3322 46.7259 36.3322 47.1135Z" fill="black"/>
<path d="M36.3323 56.0637C36.3323 56.4513 36.0181 56.7656 35.6305 56.7656C35.2429 56.7656 34.9286 56.4513 34.9286 56.0637C34.9286 55.6761 35.2429 55.3619 35.6305 55.3619C36.0181 55.3619 36.3323 55.6761 36.3323 56.0637Z" fill="black"/>
<path fill-rule="evenodd" clip-rule="evenodd" d="M49.1137 65.9954C48.7757 65.6256 48.4625 65.2328 48.1767 64.8195C46.9426 63.035 46.2197 60.8701 46.2197 58.5362C46.2197 52.4281 51.1714 47.4765 57.2795 47.4765C63.3877 47.4765 68.3393 52.4281 68.3393 58.5362C68.3393 60.9396 67.5727 63.164 66.2706 64.9781C65.9777 65.3862 65.6577 65.7735 65.3132 66.1374L61.4182 62.441C62.3801 61.422 62.9699 60.0477 62.9699 58.5358C62.9699 57.8783 62.8584 57.2468 62.6532 56.6593L63.402 54.7634C64.0791 55.86 64.4699 57.1523 64.4699 58.5358C64.4699 59.9045 64.0864 61.1854 63.4221 62.2748L65.1707 63.9343C66.2241 62.398 66.8393 60.54 66.8393 58.5362C66.8393 53.5851 63.0753 49.513 58.2527 49.0254V51.411C59.3149 51.5547 60.3034 51.9303 61.1657 52.4852L59.3412 53.2306C58.702 52.9821 58.0069 52.8458 57.2799 52.8458C54.1374 52.8458 51.5899 55.3933 51.5899 58.5358C51.5899 60.0118 52.152 61.3566 53.0737 62.3677L49.1137 65.9954ZM56.7527 51.3648C54.6377 51.5181 52.7763 52.5863 51.5625 54.1754L49.4972 52.983C51.1355 50.6911 53.7612 49.1532 56.7527 48.9907V51.3648ZM50.0899 58.5358C50.0899 57.4338 50.3378 56.3897 50.7809 55.4563L48.7231 54.2681C48.081 55.5528 47.7197 57.0023 47.7197 58.5362C47.7197 60.48 48.2987 62.2865 49.2948 63.7953L51.0729 62.1664C50.4485 61.1007 50.0899 59.8592 50.0899 58.5358Z" fill="black"/>
<path fill-rule="evenodd" clip-rule="evenodd" d="M63.187 52.6754L56.9237 55.5279C56.387 55.6371 55.8753 55.8999 55.459 56.3162C54.3304 57.4448 54.3304 59.2748 55.459 60.4035C56.5877 61.5322 58.4177 61.5322 59.5464 60.4035C59.963 59.9869 60.2259 59.4747 60.3349 58.9375L63.187 52.6754ZM57.2228 56.9978L57.3901 56.9637L60.1602 55.7021L58.8989 58.4714L58.8649 58.6391C58.8127 58.8964 58.6877 59.1409 58.4857 59.3428C57.9428 59.8857 57.0626 59.8857 56.5197 59.3428C55.9768 58.7999 55.9768 57.9197 56.5197 57.3768C56.7215 57.1751 56.9657 57.0501 57.2228 56.9978Z" fill="black"/>
<path d="M52.4948 65.4179C52.4948 65.0037 52.8306 64.6679 53.2448 64.6679H61.7248C62.139 64.6679 62.4748 65.0037 62.4748 65.4179C62.4748 65.8321 62.139 66.1679 61.7248 66.1679H53.2448C52.8306 66.1679 52.4948 65.8321 52.4948 65.4179Z" fill="black"/>
</svg>
