<svg width="243" height="70" viewBox="0 0 243 70" fill="none" xmlns="http://www.w3.org/2000/svg">
<rect width="70" height="70" rx="35" fill="url(#paint0_linear_325_63)"/>
<path d="M38.8376 40.502L35.9376 48.477C35.8665 48.6684 35.7386 48.8334 35.571 48.95C35.4034 49.0666 35.2042 49.129 35.0001 49.129C34.7959 49.129 34.5967 49.0666 34.4291 48.95C34.2615 48.8334 34.1336 48.6684 34.0626 48.477L31.1626 40.502C31.1119 40.3646 31.032 40.2397 30.9284 40.1361C30.8249 40.0325 30.7 39.9527 30.5626 39.902L22.5876 37.002C22.3962 36.931 22.2311 36.8031 22.1146 36.6355C21.998 36.4679 21.9355 36.2687 21.9355 36.0645C21.9355 35.8604 21.998 35.6611 22.1146 35.4935C22.2311 35.326 22.3962 35.1981 22.5876 35.127L30.5626 32.227C30.7 32.1764 30.8249 32.0965 30.9284 31.9929C31.032 31.8893 31.1119 31.7645 31.1626 31.627L34.0626 23.652C34.1336 23.4606 34.2615 23.2956 34.4291 23.179C34.5967 23.0625 34.7959 23 35.0001 23C35.2042 23 35.4034 23.0625 35.571 23.179C35.7386 23.2956 35.8665 23.4606 35.9376 23.652L38.8376 31.627C38.8882 31.7645 38.9681 31.8893 39.0717 31.9929C39.1753 32.0965 39.3001 32.1764 39.4376 32.227L47.4126 35.127C47.6039 35.1981 47.769 35.326 47.8855 35.4935C48.0021 35.6611 48.0646 35.8604 48.0646 36.0645C48.0646 36.2687 48.0021 36.4679 47.8855 36.6355C47.769 36.8031 47.6039 36.931 47.4126 37.002L39.4376 39.902C39.3001 39.9527 39.1753 40.0325 39.0717 40.1361C38.9681 40.2397 38.8882 40.3646 38.8376 40.502Z" fill="white" stroke="white" stroke-width="2" stroke-linecap="round" stroke-linejoin="round"/>
<path d="M184.584 21.4061L182.253 28.4261C182.196 28.5945 182.094 28.7398 181.959 28.8424C181.824 28.945 181.664 29 181.5 29C181.336 29 181.176 28.945 181.041 28.8424C180.906 28.7398 180.804 28.5945 180.747 28.4261L178.416 21.4061C178.375 21.2851 178.311 21.1752 178.228 21.084C178.144 20.9928 178.044 20.9225 177.934 20.8779L171.524 18.3252C171.37 18.2627 171.238 18.1501 171.144 18.0026C171.05 17.8551 171 17.6797 171 17.5C171 17.3203 171.05 17.1449 171.144 16.9974C171.238 16.8499 171.37 16.7373 171.524 16.6748L177.934 14.1221C178.044 14.0775 178.144 14.0072 178.228 13.916C178.311 13.8248 178.375 13.7149 178.416 13.5939L180.747 6.57393C180.804 6.40548 180.906 6.26019 181.041 6.15759C181.176 6.05499 181.336 6 181.5 6C181.664 6 181.824 6.05499 181.959 6.15759C182.094 6.26019 182.196 6.40548 182.253 6.57393L184.584 13.5939C184.625 13.7149 184.689 13.8248 184.772 13.916C184.856 14.0072 184.956 14.0775 185.066 14.1221L191.476 16.6748C191.63 16.7373 191.762 16.8499 191.856 16.9974C191.95 17.1449 192 17.3203 192 17.5C192 17.6797 191.95 17.8551 191.856 18.0026C191.762 18.1501 191.63 18.2627 191.476 18.3252L185.066 20.8779C184.956 20.9225 184.856 20.9928 184.772 21.084C184.689 21.1752 184.625 21.2851 184.584 21.4061Z" fill="black" stroke="white" stroke-width="2" stroke-linecap="round" stroke-linejoin="round"/>
<path d="M103.16 54.288C100.632 54.288 98.28 53.872 96.104 53.04C93.96 52.176 92.088 50.976 90.488 49.44C88.92 47.872 87.688 46.064 86.792 44.016C85.928 41.936 85.496 39.664 85.496 37.2C85.496 34.736 85.928 32.48 86.792 30.432C87.688 28.352 88.92 26.544 90.488 25.008C92.088 23.44 93.96 22.24 96.104 21.408C98.248 20.544 100.6 20.112 103.16 20.112C105.688 20.112 108.024 20.544 110.168 21.408C112.312 22.24 114.168 23.424 115.736 24.96C117.336 26.496 118.568 28.304 119.432 30.384C120.328 32.464 120.776 34.736 120.776 37.2C120.776 39.664 120.328 41.936 119.432 44.016C118.568 46.096 117.336 47.904 115.736 49.44C114.168 50.976 112.312 52.176 110.168 53.04C108.024 53.872 105.688 54.288 103.16 54.288ZM103.16 51.12C105.176 51.12 107.032 50.784 108.728 50.112C110.456 49.408 111.944 48.432 113.192 47.184C114.472 45.904 115.464 44.432 116.168 42.768C116.872 41.072 117.224 39.216 117.224 37.2C117.224 35.184 116.872 33.344 116.168 31.68C115.464 29.984 114.472 28.512 113.192 27.264C111.944 25.984 110.456 25.008 108.728 24.336C107.032 23.632 105.176 23.28 103.16 23.28C101.144 23.28 99.272 23.632 97.544 24.336C95.816 25.008 94.312 25.984 93.032 27.264C91.784 28.512 90.792 29.984 90.056 31.68C89.352 33.344 89 35.184 89 37.2C89 39.184 89.352 41.024 90.056 42.72C90.792 44.416 91.784 45.904 93.032 47.184C94.312 48.432 95.816 49.408 97.544 50.112C99.272 50.784 101.144 51.12 103.16 51.12ZM128.018 54V28.8H131.282V35.664L130.946 34.464C131.65 32.544 132.834 31.088 134.498 30.096C136.162 29.072 138.226 28.56 140.69 28.56V31.872C140.562 31.872 140.434 31.872 140.306 31.872C140.178 31.84 140.05 31.824 139.922 31.824C137.266 31.824 135.186 32.64 133.682 34.272C132.178 35.872 131.426 38.16 131.426 41.136V54H128.018ZM159.916 54.24C157.708 54.24 155.724 53.744 153.964 52.752C152.204 51.728 150.812 50.256 149.788 48.336C148.764 46.416 148.252 44.096 148.252 41.376C148.252 38.624 148.764 36.304 149.788 34.416C150.844 32.496 152.252 31.04 154.012 30.048C155.772 29.056 157.74 28.56 159.916 28.56C162.316 28.56 164.46 29.104 166.348 30.192C168.268 31.248 169.772 32.736 170.86 34.656C171.948 36.576 172.492 38.816 172.492 41.376C172.492 43.904 171.948 46.144 170.86 48.096C169.772 50.016 168.268 51.52 166.348 52.608C164.46 53.696 162.316 54.24 159.916 54.24ZM146.908 54V18.384H150.316V36.24L149.836 41.328L150.172 46.416V54H146.908ZM159.676 51.216C161.468 51.216 163.068 50.816 164.476 50.016C165.884 49.184 167.004 48.032 167.836 46.56C168.668 45.056 169.084 43.328 169.084 41.376C169.084 39.392 168.668 37.664 167.836 36.192C167.004 34.72 165.884 33.584 164.476 32.784C163.068 31.952 161.468 31.536 159.676 31.536C157.884 31.536 156.268 31.952 154.828 32.784C153.42 33.584 152.3 34.72 151.468 36.192C150.668 37.664 150.268 39.392 150.268 41.376C150.268 43.328 150.668 45.056 151.468 46.56C152.3 48.032 153.42 49.184 154.828 50.016C156.268 50.816 157.884 51.216 159.676 51.216ZM179.44 54V28.8H182.848V54H179.44ZM181.168 23.232C180.464 23.232 179.872 22.992 179.392 22.512C178.912 22.032 178.672 21.456 178.672 20.784C178.672 20.112 178.912 19.552 179.392 19.104C179.872 18.624 180.464 18.384 181.168 18.384C181.872 18.384 182.464 18.608 182.944 19.056C183.424 19.504 183.664 20.064 183.664 20.736C183.664 21.44 183.424 22.032 182.944 22.512C182.496 22.992 181.904 23.232 181.168 23.232ZM200.298 54.24C197.93 54.24 196.106 53.6 194.826 52.32C193.546 51.04 192.906 49.232 192.906 46.896V23.232H196.314V46.704C196.314 48.176 196.682 49.312 197.418 50.112C198.186 50.912 199.274 51.312 200.682 51.312C202.186 51.312 203.434 50.88 204.426 50.016L205.626 52.464C204.954 53.072 204.138 53.52 203.178 53.808C202.25 54.096 201.29 54.24 200.298 54.24ZM188.394 31.632V28.8H203.994V31.632H188.394Z" fill="black"/>
<defs>
<linearGradient id="paint0_linear_325_63" x1="35" y1="0" x2="35" y2="70" gradientUnits="userSpaceOnUse">
<stop stop-color="#144FE6"/>
<stop offset="0.479167" stop-color="#33FFF3" stop-opacity="0.4"/>
<stop offset="0.9999" stop-color="#33FFF3"/>
<stop offset="1" stop-color="#33FFF3"/>
</linearGradient>
</defs>
</svg>
