<svg width="243" height="70" viewBox="0 0 243 70" fill="none" xmlns="http://www.w3.org/2000/svg">
<rect width="70" height="70" rx="35" fill="url(#paint0_linear_325_63)"/>
<path d="M38.8376 40.502L35.9376 48.477C35.8665 48.6684 35.7386 48.8334 35.571 48.95C35.4034 49.0666 35.2042 49.129 35.0001 49.129C34.7959 49.129 34.5967 49.0666 34.4291 48.95C34.2615 48.8334 34.1336 48.6684 34.0626 48.477L31.1626 40.502C31.1119 40.3646 31.032 40.2397 30.9284 40.1361C30.8249 40.0325 30.7 39.9527 30.5626 39.902L22.5876 37.002C22.3962 36.931 22.2311 36.8031 22.1146 36.6355C21.998 36.4679 21.9355 36.2687 21.9355 36.0645C21.9355 35.8604 21.998 35.6611 22.1146 35.4935C22.2311 35.326 22.3962 35.1981 22.5876 35.127L30.5626 32.227C30.7 32.1764 30.8249 32.0965 30.9284 31.9929C31.032 31.8893 31.1119 31.7645 31.1626 31.627L34.0626 23.652C34.1336 23.4606 34.2615 23.2956 34.4291 23.179C34.5967 23.0625 34.7959 23 35.0001 23C35.2042 23 35.4034 23.0625 35.571 23.179C35.7386 23.2956 35.8665 23.4606 35.9376 23.652L38.8376 31.627C38.8882 31.7645 38.9681 31.8893 39.0717 31.9929C39.1753 32.0965 39.3001 32.1764 39.4376 32.227L47.4126 35.127C47.6039 35.1981 47.769 35.326 47.8855 35.4935C48.0021 35.6611 48.0646 35.8604 48.0646 36.0645C48.0646 36.2687 48.0021 36.4679 47.8855 36.6355C47.769 36.8031 47.6039 36.931 47.4126 37.002L39.4376 39.902C39.3001 39.9527 39.1753 40.0325 39.0717 40.1361C38.9681 40.2397 38.8882 40.3646 38.8376 40.502Z" fill="white" stroke="white" stroke-width="2" stroke-linecap="round" stroke-linejoin="round"/>
<path d="M175.584 21.4061L173.253 28.4261C173.196 28.5945 173.094 28.7398 172.959 28.8424C172.824 28.945 172.664 29 172.5 29C172.336 29 172.176 28.945 172.041 28.8424C171.906 28.7398 171.804 28.5945 171.747 28.4261L169.416 21.4061C169.375 21.2851 169.311 21.1752 169.228 21.084C169.144 20.9928 169.044 20.9225 168.934 20.8779L162.524 18.3252C162.37 18.2627 162.238 18.1501 162.144 18.0026C162.05 17.8551 162 17.6797 162 17.5C162 17.3203 162.05 17.1449 162.144 16.9974C162.238 16.8499 162.37 16.7373 162.524 16.6748L168.934 14.1221C169.044 14.0775 169.144 14.0072 169.228 13.916C169.311 13.8248 169.375 13.7149 169.416 13.5939L171.747 6.57393C171.804 6.40548 171.906 6.26019 172.041 6.15759C172.176 6.05499 172.336 6 172.5 6C172.664 6 172.824 6.05499 172.959 6.15759C173.094 6.26019 173.196 6.40548 173.253 6.57393L175.584 13.5939C175.625 13.7149 175.689 13.8248 175.772 13.916C175.856 14.0072 175.956 14.0775 176.066 14.1221L182.476 16.6748C182.63 16.7373 182.762 16.8499 182.856 16.9974C182.95 17.1449 183 17.3203 183 17.5C183 17.6797 182.95 17.8551 182.856 18.0026C182.762 18.1501 182.63 18.2627 182.476 18.3252L176.066 20.8779C175.956 20.9225 175.856 20.9928 175.772 21.084C175.689 21.1752 175.625 21.2851 175.584 21.4061Z" fill="black" stroke="white" stroke-width="2" stroke-linecap="round" stroke-linejoin="round"/>
<path d="M98.888 54.288C96.296 54.288 93.992 53.616 91.976 52.272C89.96 50.896 88.376 48.944 87.224 46.416C86.072 43.856 85.496 40.784 85.496 37.2C85.496 33.616 86.072 30.56 87.224 28.032C88.376 25.472 89.96 23.52 91.976 22.176C93.992 20.8 96.296 20.112 98.888 20.112C101.48 20.112 103.784 20.8 105.8 22.176C107.816 23.52 109.4 25.472 110.552 28.032C111.736 30.56 112.328 33.616 112.328 37.2C112.328 40.784 111.736 43.856 110.552 46.416C109.4 48.944 107.816 50.896 105.8 52.272C103.784 53.616 101.48 54.288 98.888 54.288ZM98.888 51.12C100.872 51.12 102.6 50.592 104.072 49.536C105.544 48.448 106.696 46.88 107.528 44.832C108.36 42.752 108.776 40.208 108.776 37.2C108.776 34.192 108.36 31.664 107.528 29.616C106.696 27.536 105.544 25.968 104.072 24.912C102.6 23.824 100.872 23.28 98.888 23.28C96.968 23.28 95.256 23.824 93.752 24.912C92.248 25.968 91.08 27.536 90.248 29.616C89.416 31.664 89 34.192 89 37.2C89 40.208 89.416 42.752 90.248 44.832C91.08 46.88 92.248 48.448 93.752 49.536C95.256 50.592 96.968 51.12 98.888 51.12ZM119.533 54V28.8H122.797V35.664L122.461 34.464C123.165 32.544 124.349 31.088 126.013 30.096C127.677 29.072 129.741 28.56 132.205 28.56V31.872C132.077 31.872 131.949 31.872 131.821 31.872C131.693 31.84 131.565 31.824 131.437 31.824C128.781 31.824 126.701 32.64 125.197 34.272C123.693 35.872 122.941 38.16 122.941 41.136V54H119.533ZM151.432 54.24C149.224 54.24 147.24 53.744 145.48 52.752C143.72 51.728 142.328 50.256 141.304 48.336C140.28 46.416 139.768 44.096 139.768 41.376C139.768 38.624 140.28 36.304 141.304 34.416C142.36 32.496 143.768 31.04 145.528 30.048C147.288 29.056 149.256 28.56 151.432 28.56C153.832 28.56 155.976 29.104 157.864 30.192C159.784 31.248 161.288 32.736 162.376 34.656C163.464 36.576 164.008 38.816 164.008 41.376C164.008 43.904 163.464 46.144 162.376 48.096C161.288 50.016 159.784 51.52 157.864 52.608C155.976 53.696 153.832 54.24 151.432 54.24ZM138.424 54V18.384H141.832V36.24L141.352 41.328L141.688 46.416V54H138.424ZM151.192 51.216C152.984 51.216 154.584 50.816 155.992 50.016C157.4 49.184 158.52 48.032 159.352 46.56C160.184 45.056 160.6 43.328 160.6 41.376C160.6 39.392 160.184 37.664 159.352 36.192C158.52 34.72 157.4 33.584 155.992 32.784C154.584 31.952 152.984 31.536 151.192 31.536C149.4 31.536 147.784 31.952 146.344 32.784C144.936 33.584 143.816 34.72 142.984 36.192C142.184 37.664 141.784 39.392 141.784 41.376C141.784 43.328 142.184 45.056 142.984 46.56C143.816 48.032 144.936 49.184 146.344 50.016C147.784 50.816 149.4 51.216 151.192 51.216ZM170.955 54V28.8H174.363V54H170.955ZM172.683 23.232C171.979 23.232 171.387 22.992 170.907 22.512C170.427 22.032 170.187 21.456 170.187 20.784C170.187 20.112 170.427 19.552 170.907 19.104C171.387 18.624 171.979 18.384 172.683 18.384C173.387 18.384 173.979 18.608 174.459 19.056C174.939 19.504 175.179 20.064 175.179 20.736C175.179 21.44 174.939 22.032 174.459 22.512C174.011 22.992 173.419 23.232 172.683 23.232ZM191.814 54.24C189.446 54.24 187.622 53.6 186.342 52.32C185.062 51.04 184.422 49.232 184.422 46.896V23.232H187.83V46.704C187.83 48.176 188.198 49.312 188.934 50.112C189.702 50.912 190.79 51.312 192.198 51.312C193.702 51.312 194.95 50.88 195.942 50.016L197.142 52.464C196.47 53.072 195.654 53.52 194.694 53.808C193.766 54.096 192.806 54.24 191.814 54.24ZM179.91 31.632V28.8H195.51V31.632H179.91Z" fill="black"/>
<defs>
<linearGradient id="paint0_linear_325_63" x1="35" y1="0" x2="35" y2="70" gradientUnits="userSpaceOnUse">
<stop stop-color="#144FE6"/>
<stop offset="0.479167" stop-color="#33FFF3" stop-opacity="0.4"/>
<stop offset="0.9999" stop-color="#33FFF3"/>
<stop offset="1" stop-color="#33FFF3"/>
</linearGradient>
</defs>
</svg>
