<svg width="100" height="100" viewBox="0 0 100 100" fill="none" xmlns="http://www.w3.org/2000/svg">
<rect width="100" height="100" rx="30" fill="white"/>
<g clip-path="url(#clip0_353_78)">
<path d="M48.4318 66.2727V33.5455H50.5284V66.2727H48.4318ZM55.4886 43.3636C55.3352 42.0682 54.7131 41.0625 53.6222 40.3466C52.5313 39.6307 51.1932 39.2727 49.608 39.2727C48.4489 39.2727 47.4347 39.4602 46.5653 39.8352C45.7045 40.2102 45.0313 40.7259 44.5455 41.3821C44.0682 42.0384 43.8295 42.7841 43.8295 43.6193C43.8295 44.3182 43.9957 44.919 44.3281 45.4219C44.669 45.9162 45.1037 46.3295 45.6321 46.6619C46.1605 46.9858 46.7145 47.2543 47.294 47.4673C47.8736 47.6719 48.4062 47.8381 48.892 47.9659L51.5511 48.6818C52.233 48.8608 52.9915 49.108 53.8267 49.4233C54.6705 49.7386 55.4759 50.169 56.2429 50.7145C57.0185 51.2514 57.6577 51.9418 58.1605 52.7855C58.6634 53.6293 58.9148 54.6648 58.9148 55.892C58.9148 57.3068 58.544 58.5852 57.8026 59.7273C57.0696 60.8693 55.9957 61.777 54.581 62.4503C53.1747 63.1236 51.4659 63.4602 49.4545 63.4602C47.5795 63.4602 45.956 63.1577 44.5838 62.5526C43.2202 61.9474 42.1463 61.1037 41.3622 60.0213C40.5866 58.9389 40.1477 57.6818 40.0455 56.25H43.3182C43.4034 57.2386 43.7358 58.0568 44.3153 58.7045C44.9034 59.3437 45.6449 59.821 46.5398 60.1364C47.4432 60.4432 48.4148 60.5966 49.4545 60.5966C50.6648 60.5966 51.7514 60.4006 52.7145 60.0085C53.6776 59.608 54.4403 59.054 55.0028 58.3466C55.5653 57.6307 55.8466 56.7955 55.8466 55.8409C55.8466 54.9716 55.6037 54.2642 55.1179 53.7188C54.6321 53.1733 53.9929 52.7301 53.2003 52.3892C52.4077 52.0483 51.5511 51.75 50.6307 51.4943L47.4091 50.5739C45.3636 49.9858 43.7443 49.1463 42.5511 48.0554C41.358 46.9645 40.7614 45.5369 40.7614 43.7727C40.7614 42.3068 41.1577 41.0284 41.9503 39.9375C42.7514 38.8381 43.8253 37.9858 45.1719 37.3807C46.527 36.767 48.0398 36.4602 49.7102 36.4602C51.3977 36.4602 52.8977 36.7628 54.2102 37.3679C55.5227 37.9645 56.5625 38.7827 57.3295 39.8224C58.1051 40.8622 58.5142 42.0426 58.5568 43.3636H55.4886Z" fill="black"/>
</g>
<defs>
<clipPath id="clip0_353_78">
<rect width="42" height="42" fill="white" transform="translate(29 29)"/>
</clipPath>
</defs>
</svg>
