<svg width="402" height="402" viewBox="0 0 402 402" fill="none" xmlns="http://www.w3.org/2000/svg">
<path d="M401 201C401 90.543 311.457 1 201 1C90.5431 1 1 90.543 1 201C1 311.457 90.5431 401 201 401C311.457 401 401 311.457 401 201Z" stroke="url(#paint0_linear_344_141)" stroke-linecap="round" stroke-linejoin="round"/>
<path d="M395.354 201C395.354 93.6613 308.339 6.64627 201 6.64627C93.6616 6.64627 6.64648 93.6613 6.64648 201C6.64648 308.338 93.6616 395.354 201 395.354C308.339 395.354 395.354 308.338 395.354 201Z" stroke="url(#paint1_linear_344_141)" stroke-linecap="round" stroke-linejoin="round"/>
<path d="M389.701 201C389.701 96.7831 305.217 12.2988 201 12.2988C96.7833 12.2988 12.2988 96.7831 12.2988 201C12.2988 305.217 96.7833 389.701 201 389.701C305.217 389.701 389.701 305.217 389.701 201Z" stroke="url(#paint2_linear_344_141)" stroke-linecap="round" stroke-linejoin="round"/>
<path d="M384.055 201C384.055 99.9014 302.099 17.9449 201 17.9449C99.9018 17.9449 17.9453 99.9014 17.9453 201C17.9453 302.098 99.9018 384.055 201 384.055C302.099 384.055 384.055 302.098 384.055 201Z" stroke="url(#paint3_linear_344_141)" stroke-linecap="round" stroke-linejoin="round"/>
<path d="M378.402 201.001C378.402 103.024 298.977 23.5985 201 23.5985C103.023 23.5985 23.5977 103.024 23.5977 201.001C23.5977 298.978 103.023 378.403 201 378.403C298.977 378.403 378.402 298.978 378.402 201.001Z" stroke="url(#paint4_linear_344_141)" stroke-linecap="round" stroke-linejoin="round"/>
<path d="M372.756 201C372.756 106.142 295.858 29.2437 201 29.2437C106.142 29.2437 29.2441 106.142 29.2441 201C29.2441 295.858 106.142 372.756 201 372.756C295.858 372.756 372.756 295.858 372.756 201Z" stroke="url(#paint5_linear_344_141)" stroke-linecap="round" stroke-linejoin="round"/>
<path d="M367.11 201C367.11 109.26 292.74 34.8899 201 34.8899C109.26 34.8899 34.8906 109.26 34.8906 201C34.8906 292.74 109.26 367.109 201 367.109C292.74 367.109 367.11 292.74 367.11 201Z" stroke="url(#paint6_linear_344_141)" stroke-linecap="round" stroke-linejoin="round"/>
<path d="M361.458 201C361.458 112.382 289.618 40.5423 201 40.5423C112.382 40.5423 40.543 112.382 40.543 201C40.543 289.618 112.382 361.457 201 361.457C289.618 361.457 361.458 289.618 361.458 201Z" stroke="url(#paint7_linear_344_141)" stroke-linecap="round" stroke-linejoin="round"/>
<path d="M355.81 201C355.81 115.5 286.499 46.1886 200.999 46.1886C115.5 46.1886 46.1885 115.5 46.1885 201C46.1885 286.499 115.5 355.811 200.999 355.811C286.499 355.811 355.81 286.499 355.81 201Z" stroke="url(#paint8_linear_344_141)" stroke-linecap="round" stroke-linejoin="round"/>
<path d="M350.159 201C350.159 118.622 283.378 51.8412 201 51.8412C118.622 51.8412 51.8418 118.622 51.8418 201C51.8418 283.378 118.622 350.158 201 350.158C283.378 350.158 350.159 283.378 350.159 201Z" stroke="url(#paint9_linear_344_141)" stroke-linecap="round" stroke-linejoin="round"/>
<path d="M344.513 201.001C344.513 121.741 280.26 57.4883 201 57.4883C121.741 57.4883 57.4883 121.741 57.4883 201.001C57.4883 280.26 121.741 344.513 201 344.513C280.26 344.513 344.513 280.26 344.513 201.001Z" stroke="url(#paint10_linear_344_141)" stroke-linecap="round" stroke-linejoin="round"/>
<path d="M338.86 201C338.86 124.862 277.138 63.1399 201 63.1399C124.863 63.1399 63.1406 124.862 63.1406 201C63.1406 277.137 124.863 338.859 201 338.859C277.138 338.859 338.86 277.137 338.86 201Z" stroke="url(#paint11_linear_344_141)" stroke-linecap="round" stroke-linejoin="round"/>
<path d="M333.213 201C333.213 127.981 274.019 68.787 201 68.787C127.98 68.787 68.7861 127.981 68.7861 201C68.7861 274.02 127.98 333.214 201 333.214C274.019 333.214 333.213 274.02 333.213 201Z" stroke="url(#paint12_linear_344_141)" stroke-linecap="round" stroke-linejoin="round"/>
<path d="M327.568 201C327.568 131.099 270.902 74.4332 201.001 74.4332C131.1 74.4332 74.4336 131.099 74.4336 201C74.4336 270.901 131.1 327.567 201.001 327.567C270.902 327.567 327.568 270.901 327.568 201Z" stroke="url(#paint13_linear_344_141)" stroke-linecap="round" stroke-linejoin="round"/>
<path d="M321.914 200.999C321.914 134.22 267.779 80.0848 201 80.0848C134.22 80.0848 80.085 134.22 80.085 200.999C80.085 267.779 134.22 321.914 201 321.914C267.779 321.914 321.914 267.779 321.914 200.999Z" stroke="url(#paint14_linear_344_141)" stroke-linecap="round" stroke-linejoin="round"/>
<path d="M316.268 201C316.268 137.339 264.661 85.732 201 85.732C137.339 85.732 85.7314 137.339 85.7314 201C85.7314 264.661 137.339 316.269 201 316.269C264.661 316.269 316.268 264.661 316.268 201Z" stroke="url(#paint15_linear_344_141)" stroke-linecap="round" stroke-linejoin="round"/>
<path d="M310.616 200.999C310.616 140.46 261.539 91.3835 201 91.3835C140.46 91.3835 91.3838 140.46 91.3838 200.999C91.3838 261.539 140.46 310.615 201 310.615C261.539 310.615 310.616 261.539 310.616 200.999Z" stroke="url(#paint16_linear_344_141)" stroke-linecap="round" stroke-linejoin="round"/>
<path d="M304.969 200.999C304.969 143.578 258.421 97.0297 201 97.0297C143.579 97.0297 97.0303 143.578 97.0303 200.999C97.0303 258.42 143.579 304.969 201 304.969C258.421 304.969 304.969 258.42 304.969 200.999Z" stroke="url(#paint17_linear_344_141)" stroke-linecap="round" stroke-linejoin="round"/>
<path d="M299.323 201C299.323 146.698 255.302 102.677 201 102.677C146.698 102.677 102.677 146.698 102.677 201C102.677 255.302 146.698 299.323 201 299.323C255.302 299.323 299.323 255.302 299.323 201Z" stroke="url(#paint18_linear_344_141)" stroke-linecap="round" stroke-linejoin="round"/>
<path d="M293.671 201C293.671 149.82 252.18 108.329 201 108.329C149.819 108.329 108.329 149.82 108.329 201C108.329 252.181 149.819 293.671 201 293.671C252.18 293.671 293.671 252.181 293.671 201Z" stroke="url(#paint19_linear_344_141)" stroke-linecap="round" stroke-linejoin="round"/>
<path d="M288.024 200.999C288.024 152.937 249.062 113.975 201 113.975C152.938 113.975 113.976 152.937 113.976 200.999C113.976 249.061 152.938 288.023 201 288.023C249.062 288.023 288.024 249.061 288.024 200.999Z" stroke="url(#paint20_linear_344_141)" stroke-linecap="round" stroke-linejoin="round"/>
<path d="M282.372 201C282.372 156.06 245.94 119.628 201 119.628C156.059 119.628 119.628 156.06 119.628 201C119.628 245.941 156.059 282.372 201 282.372C245.94 282.372 282.372 245.941 282.372 201Z" stroke="url(#paint21_linear_344_141)" stroke-linecap="round" stroke-linejoin="round"/>
<path d="M276.726 201C276.726 159.178 242.822 125.274 201 125.274C159.178 125.274 125.274 159.178 125.274 201C125.274 242.822 159.178 276.726 201 276.726C242.822 276.726 276.726 242.822 276.726 201Z" stroke="url(#paint22_linear_344_141)" stroke-linecap="round" stroke-linejoin="round"/>
<path d="M271.079 201C271.079 162.296 239.704 130.921 201 130.921C162.296 130.921 130.921 162.296 130.921 201C130.921 239.704 162.296 271.079 201 271.079C239.704 271.079 271.079 239.704 271.079 201Z" stroke="url(#paint23_linear_344_141)" stroke-linecap="round" stroke-linejoin="round"/>
<path d="M265.427 201C265.427 165.418 236.582 136.573 201 136.573C165.418 136.573 136.573 165.418 136.573 201C136.573 236.582 165.418 265.427 201 265.427C236.582 265.427 265.427 236.582 265.427 201Z" stroke="url(#paint24_linear_344_141)" stroke-linecap="round" stroke-linejoin="round"/>
<path d="M259.781 201.001C259.781 168.537 233.464 142.22 201 142.22C168.537 142.22 142.22 168.537 142.22 201.001C142.22 233.464 168.537 259.781 201 259.781C233.464 259.781 259.781 233.464 259.781 201.001Z" stroke="url(#paint25_linear_344_141)" stroke-linecap="round" stroke-linejoin="round"/>
<path d="M254.128 201C254.128 171.658 230.342 147.872 201 147.872C171.658 147.872 147.872 171.658 147.872 201C147.872 230.342 171.658 254.128 201 254.128C230.342 254.128 254.128 230.342 254.128 201Z" stroke="url(#paint26_linear_344_141)" stroke-linecap="round" stroke-linejoin="round"/>
<path d="M248.482 201C248.482 174.776 227.224 153.518 201 153.518C174.777 153.518 153.519 174.776 153.519 201C153.519 227.223 174.777 248.481 201 248.481C227.224 248.481 248.482 227.223 248.482 201Z" stroke="url(#paint27_linear_344_141)" stroke-linecap="round" stroke-linejoin="round"/>
<path d="M242.829 201C242.829 177.898 224.102 159.171 201 159.171C177.899 159.171 159.171 177.898 159.171 201C159.171 224.101 177.899 242.829 201 242.829C224.102 242.829 242.829 224.101 242.829 201Z" stroke="url(#paint28_linear_344_141)" stroke-linecap="round" stroke-linejoin="round"/>
<path d="M237.183 201C237.183 181.016 220.984 164.817 201 164.817C181.017 164.817 164.817 181.016 164.817 201C164.817 220.983 181.017 237.183 201 237.183C220.984 237.183 237.183 220.983 237.183 201Z" stroke="url(#paint29_linear_344_141)" stroke-linecap="round" stroke-linejoin="round"/>
<path d="M231.536 201C231.536 184.135 217.864 170.463 200.999 170.463C184.135 170.463 170.463 184.135 170.463 201C170.463 217.864 184.135 231.536 200.999 231.536C217.864 231.536 231.536 217.864 231.536 201Z" stroke="url(#paint30_linear_344_141)" stroke-linecap="round" stroke-linejoin="round"/>
<path d="M225.884 201C225.884 187.257 214.743 176.116 201 176.116C187.257 176.116 176.116 187.257 176.116 201C176.116 214.743 187.257 225.884 201 225.884C214.743 225.884 225.884 214.743 225.884 201Z" stroke="url(#paint31_linear_344_141)" stroke-linecap="round" stroke-linejoin="round"/>
<rect x="171" y="231" width="60" height="60" rx="30" transform="rotate(-90 171 231)" fill="url(#paint32_linear_344_141)"/>
<path d="M205.716 197.711L212.551 200.197C212.715 200.257 212.857 200.367 212.957 200.511C213.057 200.654 213.11 200.825 213.11 201C213.11 201.175 213.057 201.346 212.957 201.489C212.857 201.633 212.715 201.743 212.551 201.804L205.716 204.289C205.598 204.333 205.491 204.401 205.402 204.49C205.313 204.579 205.245 204.686 205.201 204.804L202.716 211.639C202.655 211.803 202.545 211.945 202.401 212.045C202.258 212.145 202.087 212.198 201.912 212.198C201.737 212.198 201.566 212.145 201.423 212.045C201.279 211.945 201.169 211.803 201.108 211.639L198.623 204.804C198.579 204.686 198.511 204.579 198.422 204.49C198.333 204.401 198.226 204.333 198.108 204.289L191.273 201.804C191.109 201.743 190.967 201.633 190.867 201.489C190.767 201.346 190.714 201.175 190.714 201C190.714 200.825 190.767 200.654 190.867 200.511C190.967 200.367 191.109 200.257 191.273 200.197L198.108 197.711C198.226 197.667 198.333 197.599 198.422 197.51C198.511 197.421 198.579 197.314 198.623 197.197L201.108 190.361C201.169 190.197 201.279 190.055 201.423 189.955C201.566 189.855 201.737 189.802 201.912 189.802C202.087 189.802 202.258 189.855 202.401 189.955C202.545 190.055 202.655 190.197 202.716 190.361L205.201 197.197C205.245 197.314 205.313 197.421 205.402 197.51C205.491 197.599 205.598 197.667 205.716 197.711V197.711Z" fill="white"/>
<defs>
<linearGradient id="paint0_linear_344_141" x1="1" y1="201" x2="401" y2="201" gradientUnits="userSpaceOnUse">
<stop stop-color="#33FFF3"/>
<stop offset="1" stop-color="#4A3AFF" stop-opacity="0"/>
</linearGradient>
<linearGradient id="paint1_linear_344_141" x1="6.64648" y1="201" x2="395.354" y2="201" gradientUnits="userSpaceOnUse">
<stop stop-color="#33FFF3"/>
<stop offset="1" stop-color="#4A3AFF" stop-opacity="0"/>
</linearGradient>
<linearGradient id="paint2_linear_344_141" x1="12.2988" y1="201" x2="389.701" y2="201" gradientUnits="userSpaceOnUse">
<stop stop-color="#33FFF3"/>
<stop offset="1" stop-color="#4A3AFF" stop-opacity="0"/>
</linearGradient>
<linearGradient id="paint3_linear_344_141" x1="17.9453" y1="201" x2="384.055" y2="201" gradientUnits="userSpaceOnUse">
<stop stop-color="#33FFF3"/>
<stop offset="1" stop-color="#4A3AFF" stop-opacity="0"/>
</linearGradient>
<linearGradient id="paint4_linear_344_141" x1="23.5977" y1="201.001" x2="378.403" y2="201.001" gradientUnits="userSpaceOnUse">
<stop stop-color="#33FFF3"/>
<stop offset="1" stop-color="#4A3AFF" stop-opacity="0"/>
</linearGradient>
<linearGradient id="paint5_linear_344_141" x1="29.2441" y1="201" x2="372.756" y2="201" gradientUnits="userSpaceOnUse">
<stop stop-color="#33FFF3"/>
<stop offset="1" stop-color="#4A3AFF" stop-opacity="0"/>
</linearGradient>
<linearGradient id="paint6_linear_344_141" x1="34.8906" y1="201" x2="367.11" y2="201" gradientUnits="userSpaceOnUse">
<stop stop-color="#33FFF3"/>
<stop offset="1" stop-color="#4A3AFF" stop-opacity="0"/>
</linearGradient>
<linearGradient id="paint7_linear_344_141" x1="40.543" y1="201" x2="361.458" y2="201" gradientUnits="userSpaceOnUse">
<stop stop-color="#33FFF3"/>
<stop offset="1" stop-color="#4A3AFF" stop-opacity="0"/>
</linearGradient>
<linearGradient id="paint8_linear_344_141" x1="46.1885" y1="201" x2="355.81" y2="201" gradientUnits="userSpaceOnUse">
<stop stop-color="#33FFF3"/>
<stop offset="1" stop-color="#4A3AFF" stop-opacity="0"/>
</linearGradient>
<linearGradient id="paint9_linear_344_141" x1="51.8418" y1="201" x2="350.159" y2="201" gradientUnits="userSpaceOnUse">
<stop stop-color="#33FFF3"/>
<stop offset="1" stop-color="#4A3AFF" stop-opacity="0"/>
</linearGradient>
<linearGradient id="paint10_linear_344_141" x1="57.4883" y1="201.001" x2="344.513" y2="201.001" gradientUnits="userSpaceOnUse">
<stop stop-color="#33FFF3"/>
<stop offset="1" stop-color="#4A3AFF" stop-opacity="0"/>
</linearGradient>
<linearGradient id="paint11_linear_344_141" x1="63.1406" y1="201" x2="338.86" y2="201" gradientUnits="userSpaceOnUse">
<stop stop-color="#33FFF3"/>
<stop offset="1" stop-color="#4A3AFF" stop-opacity="0"/>
</linearGradient>
<linearGradient id="paint12_linear_344_141" x1="68.7861" y1="201" x2="333.213" y2="201" gradientUnits="userSpaceOnUse">
<stop stop-color="#33FFF3"/>
<stop offset="1" stop-color="#4A3AFF" stop-opacity="0"/>
</linearGradient>
<linearGradient id="paint13_linear_344_141" x1="74.4336" y1="201" x2="327.568" y2="201" gradientUnits="userSpaceOnUse">
<stop stop-color="#33FFF3"/>
<stop offset="1" stop-color="#4A3AFF" stop-opacity="0"/>
</linearGradient>
<linearGradient id="paint14_linear_344_141" x1="80.085" y1="200.999" x2="321.914" y2="200.999" gradientUnits="userSpaceOnUse">
<stop stop-color="#33FFF3"/>
<stop offset="1" stop-color="#4A3AFF" stop-opacity="0"/>
</linearGradient>
<linearGradient id="paint15_linear_344_141" x1="85.7314" y1="201" x2="316.268" y2="201" gradientUnits="userSpaceOnUse">
<stop stop-color="#33FFF3"/>
<stop offset="1" stop-color="#4A3AFF" stop-opacity="0"/>
</linearGradient>
<linearGradient id="paint16_linear_344_141" x1="91.3838" y1="200.999" x2="310.616" y2="200.999" gradientUnits="userSpaceOnUse">
<stop stop-color="#33FFF3"/>
<stop offset="1" stop-color="#4A3AFF" stop-opacity="0"/>
</linearGradient>
<linearGradient id="paint17_linear_344_141" x1="97.0303" y1="200.999" x2="304.969" y2="200.999" gradientUnits="userSpaceOnUse">
<stop stop-color="#33FFF3"/>
<stop offset="1" stop-color="#4A3AFF" stop-opacity="0"/>
</linearGradient>
<linearGradient id="paint18_linear_344_141" x1="102.677" y1="201" x2="299.323" y2="201" gradientUnits="userSpaceOnUse">
<stop stop-color="#33FFF3"/>
<stop offset="1" stop-color="#4A3AFF" stop-opacity="0"/>
</linearGradient>
<linearGradient id="paint19_linear_344_141" x1="108.329" y1="201" x2="293.671" y2="201" gradientUnits="userSpaceOnUse">
<stop stop-color="#33FFF3"/>
<stop offset="1" stop-color="#4A3AFF" stop-opacity="0"/>
</linearGradient>
<linearGradient id="paint20_linear_344_141" x1="113.976" y1="200.999" x2="288.024" y2="200.999" gradientUnits="userSpaceOnUse">
<stop stop-color="#33FFF3"/>
<stop offset="1" stop-color="#4A3AFF" stop-opacity="0"/>
</linearGradient>
<linearGradient id="paint21_linear_344_141" x1="119.628" y1="201" x2="282.372" y2="201" gradientUnits="userSpaceOnUse">
<stop stop-color="#33FFF3"/>
<stop offset="1" stop-color="#4A3AFF" stop-opacity="0"/>
</linearGradient>
<linearGradient id="paint22_linear_344_141" x1="125.274" y1="201" x2="276.726" y2="201" gradientUnits="userSpaceOnUse">
<stop stop-color="#33FFF3"/>
<stop offset="1" stop-color="#4A3AFF" stop-opacity="0"/>
</linearGradient>
<linearGradient id="paint23_linear_344_141" x1="130.921" y1="201" x2="271.079" y2="201" gradientUnits="userSpaceOnUse">
<stop stop-color="#33FFF3"/>
<stop offset="1" stop-color="#4A3AFF" stop-opacity="0"/>
</linearGradient>
<linearGradient id="paint24_linear_344_141" x1="136.573" y1="201" x2="265.427" y2="201" gradientUnits="userSpaceOnUse">
<stop stop-color="#33FFF3"/>
<stop offset="1" stop-color="#4A3AFF" stop-opacity="0"/>
</linearGradient>
<linearGradient id="paint25_linear_344_141" x1="142.22" y1="201.001" x2="259.781" y2="201.001" gradientUnits="userSpaceOnUse">
<stop stop-color="#33FFF3"/>
<stop offset="1" stop-color="#4A3AFF" stop-opacity="0"/>
</linearGradient>
<linearGradient id="paint26_linear_344_141" x1="147.872" y1="201" x2="254.128" y2="201" gradientUnits="userSpaceOnUse">
<stop stop-color="#33FFF3"/>
<stop offset="1" stop-color="#4A3AFF" stop-opacity="0"/>
</linearGradient>
<linearGradient id="paint27_linear_344_141" x1="153.519" y1="201" x2="248.482" y2="201" gradientUnits="userSpaceOnUse">
<stop stop-color="#33FFF3"/>
<stop offset="1" stop-color="#4A3AFF" stop-opacity="0"/>
</linearGradient>
<linearGradient id="paint28_linear_344_141" x1="159.171" y1="201" x2="242.829" y2="201" gradientUnits="userSpaceOnUse">
<stop stop-color="#33FFF3"/>
<stop offset="1" stop-color="#4A3AFF" stop-opacity="0"/>
</linearGradient>
<linearGradient id="paint29_linear_344_141" x1="164.817" y1="201" x2="237.183" y2="201" gradientUnits="userSpaceOnUse">
<stop stop-color="#33FFF3"/>
<stop offset="1" stop-color="#4A3AFF" stop-opacity="0"/>
</linearGradient>
<linearGradient id="paint30_linear_344_141" x1="170.463" y1="201" x2="231.536" y2="201" gradientUnits="userSpaceOnUse">
<stop stop-color="#33FFF3"/>
<stop offset="1" stop-color="#4A3AFF" stop-opacity="0"/>
</linearGradient>
<linearGradient id="paint31_linear_344_141" x1="176.116" y1="201" x2="225.884" y2="201" gradientUnits="userSpaceOnUse">
<stop stop-color="#33FFF3"/>
<stop offset="1" stop-color="#4A3AFF" stop-opacity="0"/>
</linearGradient>
<linearGradient id="paint32_linear_344_141" x1="201" y1="231" x2="201" y2="291" gradientUnits="userSpaceOnUse">
<stop stop-color="#144FE6"/>
<stop offset="0.479167" stop-color="#33FFF3" stop-opacity="0.4"/>
<stop offset="0.9999" stop-color="#33FFF3"/>
<stop offset="1" stop-color="#33FFF3"/>
</linearGradient>
</defs>
</svg>
